# xmcd
#
# Track frame offsets:
#   150
#   30215
#   60277
#   90340
#   120405
#   150467
#   180530
#   210595
#
# Disc length: 3204 seconds
#
# Revision: 0
# Processed by: cddbd v1.5.1PL0 Copyright (c) Steve Scherf et al.
# Submitted via: uFREEDB ActiveX Control 1.5
#
DISCID=4c0c8208
DTITLE=canario - sabia
DYEAR=2005
DGENRE=Country
TTITLE0=canario
TTITLE1=ssss
TTITLE2=sddss
TTITLE3=sssssdrfdf
TTITLE4=yyy
TTITLE5=hhhh
TTITLE6=hjyrff
TTITLE7=rdd
EXTD=
EXTT0=
EXTT1=
EXTT2=
EXTT3=
EXTT4=
EXTT5=
EXTT6=
EXTT7=
PLAYORDER=
